<svg xmlns="http://www.w3.org/2000/svg" version="1.1" xmlns:xlink="http://www.w3.org/1999/xlink" xmlns:svgjs="http://svgjs.dev/svgjs" width="1440" height="800" preserveAspectRatio="none" viewBox="0 0 1440 800">
    <g clip-path="url(&quot;#SvgjsClipPath1300&quot;)" fill="none">
        <rect width="1440" height="800" x="0" y="0" fill="rgba(127, 85, 57, 1)"></rect>
        <circle r="133.335" cx="109.31" cy="-49.55" stroke="#ffffff" stroke-opacity="1" stroke-width="2"></circle>
        <circle r="133.335" cx="433.37" cy="475.62" stroke="#ffffff" stroke-opacity="1" stroke-width="2"></circle>
        <circle r="254.815" cx="216.79" cy="160.63" stroke="#ffffff" stroke-opacity="1" stroke-width="2"></circle>
        <circle r="129.315" cx="1321.97" cy="128.77" stroke="#ffffff" stroke-opacity="1" stroke-width="2"></circle>
        <circle r="77.075" cx="1144.97" cy="83.25" stroke="#ffffff" stroke-opacity="1" stroke-width="2"></circle>
        <circle r="250.035" cx="504.51" cy="346.2" stroke="#ffffff" stroke-opacity="1" stroke-width="2"></circle>
        <circle r="160.215" cx="745.14" cy="23.5" stroke="#ffffff" stroke-opacity="1" stroke-width="2"></circle>
        <circle r="264.25" cx="1338.13" cy="291.95" stroke="#ffffff" stroke-opacity="1" stroke-width="2"></circle>
        <circle r="142.185" cx="505.63" cy="600.44" stroke="#ffffff" stroke-opacity="1" stroke-width="2"></circle>
        <circle r="122.42" cx="316.45" cy="637.19" stroke="#ffffff" stroke-opacity="1" stroke-width="2"></circle>
        <circle r="229.5" cx="704.01" cy="652.29" stroke="#ffffff" stroke-opacity="1" stroke-width="2"></circle>
        <circle r="199.71" cx="286.36" cy="710.71" stroke="#ffffff" stroke-opacity="1" stroke-width="2"></circle>
        <circle r="217.19" cx="1272.05" cy="320.43" stroke="#ffffff" stroke-opacity="1" stroke-width="2"></circle>
        <circle r="86.405" cx="872.13" cy="21.91" stroke="#ffffff" stroke-opacity="1" stroke-width="2"></circle>
        <circle r="150.8" cx="1109.24" cy="777.61" stroke="#ffffff" stroke-opacity="1" stroke-width="2"></circle>
        <circle r="224.61" cx="919.17" cy="36.51" stroke="#ffffff" stroke-opacity="1" stroke-width="2"></circle>
        <circle r="246.73" cx="1164.54" cy="657.54" stroke="#ffffff" stroke-opacity="1" stroke-width="2"></circle>
        <circle r="241.63" cx="113.66" cy="220.85" stroke="#ffffff" stroke-opacity="1" stroke-width="2"></circle>
        <circle r="228.635" cx="1074.03" cy="750.44" stroke="#ffffff" stroke-opacity="1" stroke-width="2"></circle>
        <circle r="250.74" cx="1365.91" cy="283.7" stroke="#ffffff" stroke-opacity="1" stroke-width="2"></circle>
        <circle r="162.5" cx="1205.08" cy="661.82" stroke="#ffffff" stroke-opacity="1" stroke-width="2"></circle>
        <circle r="93.45" cx="1036.42" cy="60.07" stroke="#ffffff" stroke-opacity="1" stroke-width="2"></circle>
        <circle r="122.865" cx="328.56" cy="123.11" stroke="#ffffff" stroke-opacity="1" stroke-width="2"></circle>
        <circle r="90.905" cx="76.33" cy="484.69" stroke="#ffffff" stroke-opacity="1" stroke-width="2"></circle>
        <circle r="91.115" cx="875.65" cy="766.41" stroke="#ffffff" stroke-opacity="1" stroke-width="2"></circle>
        <circle r="262.815" cx="466.47" cy="393.79" stroke="#ffffff" stroke-opacity="1" stroke-width="2"></circle>
        <circle r="237.755" cx="352.74" cy="777.49" stroke="#ffffff" stroke-opacity="1" stroke-width="2"></circle>
        <circle r="152.19" cx="528.21" cy="696.4" stroke="#ffffff" stroke-opacity="1" stroke-width="2"></circle>
        <circle r="133.28" cx="1299.02" cy="721.5" stroke="#ffffff" stroke-opacity="1" stroke-width="2"></circle>
        <circle r="160.315" cx="112.92" cy="142.89" stroke="#ffffff" stroke-opacity="1" stroke-width="2"></circle>
        <circle r="217.985" cx="897.26" cy="358.38" stroke="#ffffff" stroke-opacity="1" stroke-width="2"></circle>
        <circle r="125.41" cx="761.04" cy="105.87" stroke="#ffffff" stroke-opacity="1" stroke-width="2"></circle>
        <circle r="264.035" cx="17.43" cy="655.59" stroke="#ffffff" stroke-opacity="1" stroke-width="2"></circle>
        <circle r="76.97" cx="16.4" cy="328.3" stroke="#ffffff" stroke-opacity="1" stroke-width="2"></circle>
        <circle r="168.295" cx="153.27" cy="338.94" stroke="#ffffff" stroke-opacity="1" stroke-width="2"></circle>
        <circle r="88.575" cx="976.46" cy="296.34" stroke="#ffffff" stroke-opacity="1" stroke-width="2"></circle>
        <circle r="228.475" cx="893.2" cy="460.33" stroke="#ffffff" stroke-opacity="1" stroke-width="2"></circle>
        <circle r="143.19" cx="1080.01" cy="557.9" stroke="#ffffff" stroke-opacity="1" stroke-width="2"></circle>
        <circle r="126.085" cx="684.36" cy="337.05" stroke="#ffffff" stroke-opacity="1" stroke-width="2"></circle>
        <circle r="206.99" cx="473.38" cy="134.1" stroke="#ffffff" stroke-opacity="1" stroke-width="2"></circle>
    </g>
    <defs>
        <clipPath id="SvgjsClipPath1300">
            <rect width="1440" height="800" x="0" y="0"></rect>
        </clipPath>
    </defs>
</svg>